<?xml version="1.0" encoding="UTF-8"?>
<svg xmlns="http://www.w3.org/2000/svg" style="stroke-dasharray:none; shape-rendering:auto; font-family:'Arial'; text-rendering:auto; fill-opacity:1; color-interpolation:auto; color-rendering:auto; font-size:12; fill:black; stroke:black; image-rendering:auto; stroke-miterlimit:10; stroke-linecap:square; stroke-linejoin:miter; font-style:normal; stroke-width:1; stroke-dashoffset:0; font-weight:normal; stroke-opacity:1;" contentScriptType="text/ecmascript" preserveAspectRatio="xMidYMid meet" zoomAndPan="magnify" version="1.0" contentStyleType="text/css" xml:xlink="http://www.w3.org/1999/xlink" width="931" height="771"><rect x="90" y="0" width="841" height="771" ry="0" rx="0" style="stroke:#000000; fill:#FFFFFF" /><rect x="120" y="0" width="811" height="257" ry="0" rx="0" style="stroke:#000000; fill:#82B0B7" /><g componentSequence="9"><text x="-128" y="127" transform="rotate(270)" text-anchor="middle" style="font-weight:bold;font-size:10px;stroke:none; fill:#434343"><tspan dy="14" x="-128">Anfitri達o</tspan></text></g><rect x="120" y="514" width="811" height="257" ry="0" rx="0" style="stroke:#000000; fill:#5144C1" /><g componentSequence="3"><text x="-642" y="127" transform="rotate(270)" text-anchor="middle" style="font-weight:bold;font-size:10px;stroke:none; fill:#434343"><tspan dy="14" x="-642">Convidado</tspan></text></g><rect x="120" y="257" width="811" height="257" ry="0" rx="0" style="stroke:#000000; fill:#9E3333" /><g componentSequence="2"><text x="-385" y="127" transform="rotate(270)" text-anchor="middle" style="font-weight:bold;font-size:10px;stroke:none; fill:#434343"><tspan dy="14" x="-385">Solicitante</tspan></text></g><g componentSequence="1"><text x="-385" y="97" transform="rotate(270)" text-anchor="middle" style="font-weight:bold;font-size:10px;stroke:none; fill:#434343"><tspan dy="14" x="-385">Processo</tspan></text></g><g sequence="4"><ellipse cx="137" cy="166" rx="17" ry="17" stroke-width="1" style="fill:url(#linearGradient66FF6696FF96B6FFB6_653804913);" stroke="336633" /></g><g sequence="12"><polygon points=" 430 138 460 108 490 138 460 168 430 138" style="fill:url(#linearGradientFAFBFCFFFFCC_675262430);" stroke="000000" /></g><g componentSequence="12"><text x="460" y="178" text-anchor="middle" style="font-weight:bold;font-size:10px;stroke:none; fill:#333399"><tspan dy="14" x="460">Retorno</tspan><tspan dy="14" x="460">da</tspan><tspan dy="14" x="460">Reuni達o</tspan></text></g><g sequence="17"><polygon points=" 560 145 590 115 620 145 590 175 560 145" style="fill:url(#linearGradientFAFBFCFFFFCC_738209281);" stroke="000000" /></g><ellipse cx="590" cy="145" rx="17" ry="17" stroke-width="1" style="fill:url(#linearGradientFAFBFCFFFFCC_1761781221);" stroke="000000" /><g componentSequence="17"><text x="590" y="185" text-anchor="middle" style="font-weight:bold;font-size:10px;stroke:none; fill:#333399"><tspan dy="14" x="590">Feedbac</tspan><tspan dy="14" x="590">k reuni達o</tspan></text></g><g sequence="18"><rect x="767" y="618" width="106" height="56" ry="5" rx="5" style="fill:url(#linearGradientF8FBFEEDF5FCDEEDFAD4E7F8E2E5E9_230012537);" stroke="191970" /></g><g componentSequence="18"><text x="820" y="635" text-anchor="middle" style="font-weight:bold;font-size:10px;stroke:none; fill:#333399"><tspan dy="14" x="820">Convidado</tspan></text></g><g sequence="20"><rect x="630" y="332" width="106" height="56" ry="5" rx="5" style="fill:url(#linearGradientF8FBFEEDF5FCDEEDFAD4E7F8E2E5E9_1478601038);" stroke="191970" /></g><g componentSequence="20"><text x="683" y="349" text-anchor="middle" style="font-weight:bold;font-size:10px;stroke:none; fill:#333399"><tspan dy="14" x="683">Anfitri達o</tspan></text></g><g sequence="22"><polygon points=" 790 152 820 122 850 152 820 182 790 152" style="fill:url(#linearGradientFAFBFCFFFFCC_1971119213);" stroke="000000" /></g><path style="fill:none; stroke-width:6; stroke:#000000;" d="M810.0 152.0 L830.0 152.0" /><path style="fill:none; stroke-width:6; stroke:#000000;" d="M820.0 142.0 L820.0 162.0" /><g componentSequence="22"><text x="820" y="185" text-anchor="middle" style="font-weight:bold;font-size:10px;stroke:none; fill:#333399"><tspan dy="14" x="820">Join</tspan></text></g><g sequence="23"><ellipse cx="897" cy="166" rx="17" ry="17" stroke-width="3" style="fill:url(#linearGradientFF6666FF9696FFB6B6_153967274);" stroke="993333" /></g><g sequence="33"><ellipse cx="897" cy="37" rx="17" ry="17" stroke-width="3" style="fill:url(#linearGradientFF6666FF9696FFB6B6_696988552);" stroke="993333" /></g><g sequence="33"><polygon points=" 888 33 893 28 898 33 903 28 908 33 903 38 908 43 903 48 898 43 893 48 888 43 893 38" style="stroke:none; fill:#993333" /></g><g sequence="37"><rect x="280" y="40" width="106" height="56" ry="5" rx="5" style="fill:url(#linearGradientF8FBFEEDF5FCDEEDFAD4E7F8E2E5E9_2083882030);" stroke="191970" /></g><g componentSequence="37"><text x="333" y="57" text-anchor="middle" style="font-weight:bold;font-size:10px;stroke:none; fill:#333399"><tspan dy="14" x="333">2</tspan></text></g><g sequence="39"><ellipse cx="287" cy="167" rx="17" ry="17" stroke-width="1" style="fill:url(#linearGradientFFFF66FFFF96FFFFB6_1853376585);" stroke="999900" /></g><g sequence="39"><rect x="277" y="157" width="21" height="21" ry="0" rx="0" style="stroke:#000000; fill:none" /></g><g sequence="39"><path style="fill:none; stroke-width:1; stroke:#000000;" d="M279.0 160.0 L294.0 160.0" /></g><g sequence="39"><path style="fill:none; stroke-width:1; stroke:#000000;" d="M279.0 165.0 L294.0 165.0" /></g><g sequence="39"><path style="fill:none; stroke-width:1; stroke:#000000;" d="M279.0 170.0 L294.0 170.0" /></g><g sequence="39"><path style="fill:none; stroke-width:1; stroke:#000000;" d="M279.0 175.0 L294.0 175.0" /></g><g componentSequence="26"><text x="535" y="166" style="font-size:10px;font-weight:none;stroke:none; fill:#333399" text-anchor="left" /></g><g componentSequence="27"><text x="693" y="217" style="font-size:10px;font-weight:none;stroke:none; fill:#333399" text-anchor="left" /></g><g componentSequence="28"><text x="599" y="520" style="font-size:10px;font-weight:none;stroke:none; fill:#333399" text-anchor="left" /></g><g componentSequence="29"><text x="757" y="343" style="font-size:10px;font-weight:none;stroke:none; fill:#333399" text-anchor="left" /></g><g componentSequence="30"><text x="830" y="414" style="font-size:10px;font-weight:none;stroke:none; fill:#333399" text-anchor="left" /></g><g componentSequence="32"><text x="875" y="166" style="font-size:10px;font-weight:none;stroke:none; fill:#333399" text-anchor="left" /></g><g componentSequence="34"><text x="672" y="37" style="font-size:10px;font-weight:none;stroke:none; fill:#333399" text-anchor="left" /></g><g componentSequence="38"><text x="409" y="119" style="font-size:10px;font-weight:none;stroke:none; fill:#333399" text-anchor="left" /></g><g componentSequence="40"><text x="222" y="167" style="font-size:10px;font-weight:none;stroke:none; fill:#333399" text-anchor="left" /></g><g componentSequence="41"><text x="377" y="167" style="font-size:10px;font-weight:none;stroke:none; fill:#333399" text-anchor="left" /></g><g componentSequence="42"><text x="317" y="123" style="font-size:10px;font-weight:none;stroke:none; fill:#333399" text-anchor="left" /></g><path style="fill:none; stroke:#000000;stroke-width:1" d="M154.0 166.0 L270.0 167.0" /><polygon style="fill:#000000; stroke:#000000;" points=" 260 162 270 167 260 172 262 167" /><path style="fill:none; stroke:#000000;stroke-width:1" d="M490.0 166.0 L559.0 166.0" /><polygon style="fill:#000000; stroke:#000000;" points=" 549 161 559 166 549 171 551 166" /><path style="fill:none; stroke:#000000;stroke-width:1" d="M490.0 124.0 L553.0 37.0 L879.0 37.0" /><polygon style="fill:#000000; stroke:#000000;" points=" 869 32 879 37 869 42 871 37" /><path style="fill:none; stroke:#000000;stroke-width:1" d="M429.0 142.0 L369.0 96.0" /><polygon style="fill:#000000; stroke:#000000;" points=" 374 106 369 96 380 98 375 101" /><path style="fill:none; stroke:#000000;stroke-width:1" d="M304.0 167.0 L429.0 166.0" /><polygon style="fill:#000000; stroke:#000000;" points=" 419 161 429 166 419 171 421 166" /><path style="fill:none; stroke:#000000;stroke-width:1" d="M620.0 166.0 L683.0 166.0 L683.0 331.0" /><polygon style="fill:#000000; stroke:#000000;" points=" 688 321 683 331 678 321 683 323" /><path style="fill:none; stroke:#000000;stroke-width:1" d="M589.0 217.0 L589.0 645.0 L766.0 645.0" /><polygon style="fill:#000000; stroke:#000000;" points=" 756 640 766 645 756 650 758 645" /><path style="fill:none; stroke:#000000;stroke-width:1" d="M820.0 617.0 L820.0 210.0" /><polygon style="fill:#000000; stroke:#000000;" points=" 815 220 820 210 825 220 820 218" /><path style="fill:none; stroke:#000000;stroke-width:1" d="M683.0 388.0 L683.0 443.0 L747.0 443.0 L747.0 165.0 L789.0 165.0" /><polygon style="fill:#000000; stroke:#000000;" points=" 779 160 789 165 779 170 781 165" /><path style="fill:none; stroke:#000000;stroke-width:1" d="M850.0 166.0 L879.0 166.0" /><polygon style="fill:#000000; stroke:#000000;" points=" 869 161 879 166 869 171 871 166" /><path style="fill:none; stroke:#000000;stroke-width:1" d="M319.0 96.0 L294.0 151.0" /><polygon style="fill:#000000; stroke:#000000;" points=" 303 144 294 151 294 140 297 144" /><defs><linearGradient xmlns:xlink="http://www.w3.org/1999/xlink" xlink:href="#linearGradient66FF6696FF96B6FFB6" id="linearGradient66FF6696FF96B6FFB6_653804913" x1="0" y1="149.0" x2="0" y2="184.0" gradientUnits="userSpaceOnUse" xlink:type="simple" xlink:actuate="onLoad" xlink:show="other" /><linearGradient id="linearGradient66FF6696FF96B6FFB6"><stop style="stop-color:#66FF66;stop-opacity:1;" offset="0.0" id="stop66FF66" /><stop style="stop-color:#96FF96;stop-opacity:1;" offset="0.5" id="stop96FF96" /><stop style="stop-color:#B6FFB6;stop-opacity:1;" offset="1.0" id="stopB6FFB6" /></linearGradient><linearGradient xmlns:xlink="http://www.w3.org/1999/xlink" xlink:href="#linearGradientFAFBFCFFFFCC" id="linearGradientFAFBFCFFFFCC_675262430" x1="0" y1="108.0" x2="0" y2="168.0" gradientUnits="userSpaceOnUse" xlink:type="simple" xlink:actuate="onLoad" xlink:show="other" /><linearGradient id="linearGradientFAFBFCFFFFCC"><stop style="stop-color:#FAFBFC;stop-opacity:1;" offset="0.0" id="stopFAFBFC" /><stop style="stop-color:#FFFFCC;stop-opacity:1;" offset="1.0" id="stopFFFFCC" /></linearGradient><linearGradient xmlns:xlink="http://www.w3.org/1999/xlink" xlink:href="#linearGradientFAFBFCFFFFCC" id="linearGradientFAFBFCFFFFCC_738209281" x1="0" y1="115.0" x2="0" y2="175.0" gradientUnits="userSpaceOnUse" xlink:type="simple" xlink:actuate="onLoad" xlink:show="other" /><linearGradient xmlns:xlink="http://www.w3.org/1999/xlink" xlink:href="#linearGradientFAFBFCFFFFCC" id="linearGradientFAFBFCFFFFCC_1761781221" x1="0" y1="128.0" x2="0" y2="163.0" gradientUnits="userSpaceOnUse" xlink:type="simple" xlink:actuate="onLoad" xlink:show="other" /><linearGradient xmlns:xlink="http://www.w3.org/1999/xlink" xlink:href="#linearGradientF8FBFEEDF5FCDEEDFAD4E7F8E2E5E9" id="linearGradientF8FBFEEDF5FCDEEDFAD4E7F8E2E5E9_230012537" x1="0" y1="618.0" x2="0" y2="724.0" gradientUnits="userSpaceOnUse" xlink:type="simple" xlink:actuate="onLoad" xlink:show="other" /><linearGradient id="linearGradientF8FBFEEDF5FCDEEDFAD4E7F8E2E5E9"><stop style="stop-color:#F8FBFE;stop-opacity:1;" offset="0.0" id="stopF8FBFE" /><stop style="stop-color:#EDF5FC;stop-opacity:1;" offset="0.25" id="stopEDF5FC" /><stop style="stop-color:#DEEDFA;stop-opacity:1;" offset="0.5" id="stopDEEDFA" /><stop style="stop-color:#D4E7F8;stop-opacity:1;" offset="0.75" id="stopD4E7F8" /><stop style="stop-color:#E2E5E9;stop-opacity:1;" offset="1.0" id="stopE2E5E9" /></linearGradient><linearGradient xmlns:xlink="http://www.w3.org/1999/xlink" xlink:href="#linearGradientF8FBFEEDF5FCDEEDFAD4E7F8E2E5E9" id="linearGradientF8FBFEEDF5FCDEEDFAD4E7F8E2E5E9_1478601038" x1="0" y1="332.0" x2="0" y2="438.0" gradientUnits="userSpaceOnUse" xlink:type="simple" xlink:actuate="onLoad" xlink:show="other" /><linearGradient xmlns:xlink="http://www.w3.org/1999/xlink" xlink:href="#linearGradientFAFBFCFFFFCC" id="linearGradientFAFBFCFFFFCC_1971119213" x1="0" y1="122.0" x2="0" y2="182.0" gradientUnits="userSpaceOnUse" xlink:type="simple" xlink:actuate="onLoad" xlink:show="other" /><linearGradient xmlns:xlink="http://www.w3.org/1999/xlink" xlink:href="#linearGradientFF6666FF9696FFB6B6" id="linearGradientFF6666FF9696FFB6B6_153967274" x1="0" y1="149.0" x2="0" y2="184.0" gradientUnits="userSpaceOnUse" xlink:type="simple" xlink:actuate="onLoad" xlink:show="other" /><linearGradient id="linearGradientFF6666FF9696FFB6B6"><stop style="stop-color:#FF6666;stop-opacity:1;" offset="0.0" id="stopFF6666" /><stop style="stop-color:#FF9696;stop-opacity:1;" offset="0.5" id="stopFF9696" /><stop style="stop-color:#FFB6B6;stop-opacity:1;" offset="1.0" id="stopFFB6B6" /></linearGradient><linearGradient xmlns:xlink="http://www.w3.org/1999/xlink" xlink:href="#linearGradientFF6666FF9696FFB6B6" id="linearGradientFF6666FF9696FFB6B6_696988552" x1="0" y1="20.0" x2="0" y2="55.0" gradientUnits="userSpaceOnUse" xlink:type="simple" xlink:actuate="onLoad" xlink:show="other" /><linearGradient xmlns:xlink="http://www.w3.org/1999/xlink" xlink:href="#linearGradientF8FBFEEDF5FCDEEDFAD4E7F8E2E5E9" id="linearGradientF8FBFEEDF5FCDEEDFAD4E7F8E2E5E9_2083882030" x1="0" y1="40.0" x2="0" y2="146.0" gradientUnits="userSpaceOnUse" xlink:type="simple" xlink:actuate="onLoad" xlink:show="other" /><linearGradient xmlns:xlink="http://www.w3.org/1999/xlink" xlink:href="#linearGradientFFFF66FFFF96FFFFB6" id="linearGradientFFFF66FFFF96FFFFB6_1853376585" x1="0" y1="150.0" x2="0" y2="185.0" gradientUnits="userSpaceOnUse" xlink:type="simple" xlink:actuate="onLoad" xlink:show="other" /><linearGradient id="linearGradientFFFF66FFFF96FFFFB6"><stop style="stop-color:#FFFF66;stop-opacity:1;" offset="0.0" id="stopFFFF66" /><stop style="stop-color:#FFFF96;stop-opacity:1;" offset="0.5" id="stopFFFF96" /><stop style="stop-color:#FFFFB6;stop-opacity:1;" offset="1.0" id="stopFFFFB6" /></linearGradient></defs></svg>
